# xmcd
#
# Track frame offsets:
#	150
#	20807
#	46543
#	76729
#	98404
#	118943
#	141133
#	160913
#	180650
#	206044
#
# Disc length: 3354 seconds
#
# Revision: 0
# Processed by: cddbd v1.5.1PL0 Copyright (c) Steve Scherf et al.
# Submitted via: dBpowerAMP V4.0
#
DISCID=7a0d180a
DTITLE=Paul Mayascich - Times is hard
DYEAR=2004
DGENRE=Blues
TTITLE0=MAINLINE
TTITLE1=B0TTLE UP and GO
TTITLE2=BE AN ANGEL
TTITLE3=DOWN IN HOLLYWOOD
TTITLE4=LONELY TIME
TTITLE5=THAT MAN
TTITLE6=TIMES IS HARD
TTITLE7=ROLL WITH THE PUNCHES
TTITLE8=HOW CAN A POOR MAN STAND SUCH HARD TIMES
TTITLE9=TROUBLED BLUES
EXTD=Blues from St. Paul, Mn.
EXTT0=
EXTT1=
EXTT2=
EXTT3=
EXTT4=
EXTT5=
EXTT6=
EXTT7=
EXTT8=
EXTT9=
PLAYORDER=
